# xmcd
#
# Track frame offsets:
#   150
#   9573
#   28839
#   50775
#   66930
#   82630
#   97245
#   116630
#   132975
#   147095
#   162545
#   181370
#
# Disc length: 2663 seconds
#
# Revision: 0
# Processed by: cddbd v1.5.1PL0 Copyright (c) Steve Scherf et al.
# Submitted via: uFREEDB 1.6.0
#
DISCID=a90a650c
DTITLE=Varios - Musica Popular Philips Vol. 1
DYEAR=1998
DGENRE=Blues
TTITLE0=Explode Coração - Maria Bethânia
TTITLE1=Verdade - Zeca Pagodinho
TTITLE2=Não Ter - Sandy and Junior
TTITLE3=Coração Sertanejo - Chitãozinho and Xororó
TTITLE4=Trilhas - Guilherme Arantes
TTITLE5=Vem Ficar Comigo - Elba Ramalho
TTITLE6=Arerê - Banda Eva
TTITLE7=Menina - Netinho
TTITLE8=Não Acredito - Adalberto and Adriano
TTITLE9=Vou Te Matar de Cheiro - Mastruz com Leite
TTITLE10=Dois - Paulo Ricardo
TTITLE11=Amigo É Pra Essas Coisas - MPB 4
EXTD=
EXTT0=
EXTT1=
EXTT2=
EXTT3=
EXTT4=
EXTT5=
EXTT6=
EXTT7=
EXTT8=
EXTT9=
EXTT10=
EXTT11=
PLAYORDER=
